<svg version="1.1" id="Layer_1" xmlns="http://www.w3.org/2000/svg" xmlns:xlink="http://www.w3.org/1999/xlink" x="0" y="0" viewBox="0 0 800 800" xml:space="preserve"><style>.st4{fill:#2a56c6}.st14{fill:#efa686}</style><defs><path id="SVGID_1_" d="M0 0h800v800H0z"/></defs><clipPath id="SVGID_2_"><use xlink:href="#SVGID_1_" overflow="visible"/></clipPath><g clip-path="url(#SVGID_2_)"><linearGradient id="SVGID_3_" gradientUnits="userSpaceOnUse" x1="193.25" y1="240.25" x2="374.05" y2="421.05" gradientTransform="matrix(1 0 0 -1 0 802)"><stop offset="0" stop-color="#b7251d" stop-opacity=".8"/><stop offset="1" stop-color="#df382b"/></linearGradient><path fill="url(#SVGID_3_)" d="M171.3 402.9H396v136.9H171.3z"/><linearGradient id="SVGID_4_" gradientUnits="userSpaceOnUse" x1="417.95" y1="240.25" x2="598.75" y2="421.05" gradientTransform="matrix(1 0 0 -1 0 802)"><stop offset="0" stop-color="#babfc5"/><stop offset="1" stop-color="#dfe1e5"/></linearGradient><path fill="url(#SVGID_4_)" d="M396 402.9h224.7v136.9H396z"/><path fill="#4285f4" d="M283.7 266h224.7v136.9H283.7z"/><path class="st4" d="M308.9 240.8h68.7V266h-68.7z"/><path fill="#b7251d" d="M196.5 377.8h68.7V403h-68.7z"/><path fill="#babfc5" d="M526.8 377.7h68.7v25.2h-68.7z"/><path class="st4" d="M414.5 240.8h68.7V266h-68.7z"/></g><defs><path id="SVGID_5_" transform="rotate(-25.581 330.058 482.58)" d="M-69.9 82.6h800v800h-800z"/></defs><clipPath id="SVGID_6_"><use xlink:href="#SVGID_5_" overflow="visible"/></clipPath><path transform="rotate(-25.581 546.865 595.26)" clip-path="url(#SVGID_6_)" fill="none" d="M262.7 332.2h568.4v526.1H262.7z"/><g><defs><path id="SVGID_7_" d="M0 0h800v800H0z"/></defs><clipPath id="SVGID_8_"><use xlink:href="#SVGID_7_" overflow="visible"/></clipPath><g clip-path="url(#SVGID_8_)"><path d="M227.7 106.3c6.8 48-1 105.5-2.8 165.1-1.2 38.8 14.6 53.9 28.8 89.4 14.3 35.5 30.2 40.1 30.2 40.1V320s0-8.5 16.7-38.1c8.1-14.4 14.4-28 28.3-27.6 29.8 1.5 49.2 70.3 63.6 85.2 8 8.9 19.6 12.7 28.2 7.6s9.3-12.3 8.2-25.3c-1.2-12.9-18.5-46.6-28.4-84.1-8.7-37.2-15-57.9-49.7-104.7-9.3-12.5-15.2-47.5-25.1-182.1H188.9C201.1-4.6 223 91.3 227.7 106.3z" fill="#edcc7a"/><path d="M415.5 340.3c11.5-4.2 6.3-16 1.3-28.4l-24.3 10c6.4 15.7 9.7 23.2 23 18.4z" fill="#f4e9c9"/></g></g><g><defs><path id="SVGID_9_" d="M0 0h800v800H0z"/></defs><clipPath id="SVGID_10_"><use xlink:href="#SVGID_9_" overflow="visible"/></clipPath><g clip-path="url(#SVGID_10_)"><path d="M607.4 800l-16.7-35.1c-24.9-47.9-49.6-61.2-75.8-82.6-33.5-27.3-77.2-82.1-77.2-82.1l-11.3-19.4c-2.5-10.3 8.7-17.8 21.9-14.8 15.4 3.4 66 64 68.8 40.4 1.1-9.7-62.8-121.9-70.3-138.9-7.4-17-16.4-34.3-3.7-43.9 6.6-5 12.8-.2 12.8-.2l66.9 91.4s86.3 33.9 113.3 52.6c19.5 13.5 23.4 21.6 39.9 90.4 4.9 20.4 20.6 57.1 28.9 83.8l32.4 58.5" fill="#b96e4e"/><path d="M576.1 554.1c23.2 5.2 34.4 0 59.8 13.2-26.7-18.8-113.3-52.6-113.3-52.6 22.3 30.8 30.3 34.1 53.5 39.4z" fill="#9b5b45"/><path class="st14" d="M449.9 425.6c-10.5 7.2-4.8 13.3 1.8 23.1l14.8-9.3-11.5-15.9c-.1 0-1.8-.2-5.1 2.1zM453 587.1c-7.9-8.8-14.5-17.9-23.9-10.5-1.5 1.2-2.8 4.2-2.8 4.2l11.2 19.4 15.5-13.1z"/></g></g></svg>