<svg xmlns="http://www.w3.org/2000/svg" xmlns:xlink="http://www.w3.org/1999/xlink" viewBox="0 0 561.93 714.78"><defs><linearGradient id="linear-gradient" x1="189.57" y1="130.66" x2="456.27" y2="397.35" gradientTransform="rotate(-135 280.135 221.225)" gradientUnits="userSpaceOnUse"><stop offset="0" stop-color="#fff"/><stop offset=".99" stop-color="#686c71"/></linearGradient><linearGradient id="linear-gradient-2" x1="232.46" y1="564.01" x2="232.46" y2="462.07" gradientUnits="userSpaceOnUse"><stop offset="0" stop-color="#fff"/><stop offset="1" stop-color="#be1e2d"/></linearGradient><linearGradient id="linear-gradient-3" x1="77.16" y1="378.78" x2="372.53" y2="674.15" xlink:href="#linear-gradient-2"/><linearGradient id="linear-gradient-4" x1="473.8" y1="460.54" x2="329.89" y2="460.54" xlink:href="#linear-gradient-2"/><linearGradient id="linear-gradient-5" x1="-3637.32" y1="162.05" x2="-3249.6" y2="549.77" gradientTransform="rotate(-90 -1618.72 -1797.87)" xlink:href="#linear-gradient"/><style>.cls-4{fill:#be1e2c}.cls-5{fill:#ea4335}.cls-7,.cls-8,.cls-9{fill:none;stroke-linecap:round;stroke-linejoin:round;stroke:#2e68bc;stroke-width:5px}.cls-8,.cls-9{stroke:#fff}.cls-9{stroke-width:5.59px}</style></defs><g style="isolation:isolate"><g id="Layer_2" data-name="Layer 2"><g id="illys"><path transform="rotate(135 280.135 221.225)" fill="#e1e2e6" d="M107.19 81.31h345.88v279.83H107.19z"/><path transform="rotate(135 280.135 221.225)" style="mix-blend-mode:multiply" fill="url(#linear-gradient)" opacity=".4" d="M107.19 81.31h345.88v279.83H107.19z"/><path class="cls-4" d="M333.75 473.78h114.83v241H333.75z"/><path class="cls-5" d="M334.28 473.82H16.82V714.4l317.46.38V473.82z"/><path transform="rotate(135 340.7 221.223)" fill="#4285f4" d="M167.76 81.31h345.88v279.83H167.76z"/><path class="cls-7" transform="rotate(45 342.26 221.529)" d="M237.45 82.54h209.62v277.97H237.45z"/><path class="cls-7" d="M472.96 159.28L279.65 352.59M328.3 88.34l147.14 147.15M289.09 127.54l147.15 147.15M249.15 168.3l146.32 146.32M210.17 207.29L356.49 353.6"/><path class="cls-8" d="M473.7 181.84l-1.29 21.93 50.07-3.95M392.95 262.59l-1.3 21.93 50.08-3.95M315.56 341.66l-1.29 21.93 50.08-3.95"/><path class="cls-9" d="M51.06 545.07h248.99M51.06 582.08h248.99M84.71 619.09H266.4"/><path style="mix-blend-mode:multiply" fill="url(#linear-gradient-2)" fill-opacity=".5" d="M448.09 473.8H16.82v240.58l431.27.38V473.8z"/><path class="cls-4" d="M316.93 443.5H465.4v34.08H316.93z"/><path class="cls-5" d="M317.46 443.54H0v33.65l317.46.38v-34.03z"/><path style="mix-blend-mode:multiply" fill="url(#linear-gradient-3)" fill-opacity=".5" d="M317.46 443.52H0v33.65l317.46.39v-34.04z"/><path style="mix-blend-mode:multiply" fill="url(#linear-gradient-4)" fill-opacity=".5" d="M465.5 443.52H318.38v33.65l147.12.39v-34.04z"/><path class="cls-7" d="M368.37 83.86c7.25 7.24 1.59 12.9 8.83 20.14s12.91 1.59 20.15 8.84 1.59 12.9 8.83 20.14 12.91 1.6 20.16 8.84 1.59 12.91 8.84 20.16M291 164.61c7.25 7.24 1.59 12.9 8.84 20.14s12.9 1.59 20.15 8.84 1.58 12.9 8.83 20.14 12.9 1.6 20.15 8.85 1.59 12.9 8.84 20.15M213.6 242c7.24 7.24 1.59 12.9 8.83 20.14s12.9 1.59 20.15 8.84 1.59 12.9 8.83 20.14 12.91 1.59 20.16 8.84 1.59 12.91 8.84 20.16"/><path transform="rotate(135 340.7 221.223)" style="mix-blend-mode:multiply" fill="url(#linear-gradient-5)" opacity=".4" d="M167.76 81.31h345.88v279.83H167.76z"/></g></g></g></svg>