<svg version="1.1" id="Layer_1" xmlns="http://www.w3.org/2000/svg" x="0" y="0" viewBox="0 0 1400 1440" xml:space="preserve"><style>.st1{fill:#f9c78c}.st4{fill:#424242}.st11{fill:#e0e0e0}.st14{fill:#fbe9e7}</style><path d="M380.19 811.74c-13.23 61.26-79.84 296.86-79.84 296.86l193.84 64.25c16.15-104.65 35.08-320.9 76.09-429.79 41.01-108.89 45.68-120.36 56.7-214.67s3.39-109.54-8.78-109.71-16.37 6.9-18.97 30.54c-2.54 22.97-13.37 75.71-15.48 82.57-2.11 6.86-11.95 9.95-9.29-3.97s17.04-103.67 16.42-124.98c-.61-21.31-6.49-30.82-18.94-30.81-12.45.01-19.7 10.31-23.27 34.27-3.57 23.97-15.46 104.45-17.8 113.82-2.34 9.38-9.89 9.65-9.71.14.19-9.51 13.09-111.07 13.19-128.67.1-17.6-5.22-30.35-17.67-30.58-12.45-.23-22.7 10.28-26.45 35.56s-12.25 116.72-14.5 122.76-8.9 5.02-8.63-2.16c.26-7.18-.96-91.09-.16-108.73.8-17.64-5.17-31.94-17.9-31.22-12.73.72-20.77 11.44-22.84 31.02-2.07 19.58-4.78 131.42-10.04 149.73-6.98 24.33-15.01 33.59-43.31-1.24-21.03-25.89-46.63-45.41-60.85-33.25-6.23 5.33-2.29 15.67-2.29 15.67l9.7 25.36s18.8 34.05 23.99 44.89c10.7 22.35 59.45 97.39 36.79 202.34z" fill="#e09b48"/><path class="st1" d="M309.71 539.14s6.05-5.18 13.5 1.9 11.67 16.55 11.67 16.55l-15.47 6.91-9.7-25.36zM434.52 412.98l23.05.83s6.27-24.42-8.1-26.79-14.95 25.96-14.95 25.96zM501.48 396.86l23.05.83s6.27-24.42-8.1-26.79c-14.36-2.37-14.95 25.96-14.95 25.96zM558.68 407.77l23.05.83s6.27-24.42-8.1-26.79c-14.36-2.36-14.95 25.96-14.95 25.96zM607.52 448.73l17.29.62s4.08-20.82-6.69-22.6c-10.78-1.78-10.6 21.98-10.6 21.98z"/><linearGradient id="SVGID_1_" gradientUnits="userSpaceOnUse" x1="245.847" y1="839.052" x2="304.087" y2="839.052" gradientTransform="rotate(-73.029 396.684 692.959)"><stop offset="0" stop-color="#212121"/><stop offset=".612" stop-color="#393939"/><stop offset="1" stop-color="#424242"/></linearGradient><path d="M452.42 867.7l81.6 15.08c4.07.75 7.98-1.94 8.73-6l6.2-33.57c.75-4.07-1.94-7.98-6-8.73l-81.6-15.08-8.93 48.3z" fill="url(#SVGID_1_)"/><linearGradient id="SVGID_2_" gradientUnits="userSpaceOnUse" x1="236.41" y1="749.955" x2="294.649" y2="749.955" gradientTransform="rotate(-73.029 396.684 692.959)"><stop offset="0" stop-color="#212121"/><stop offset=".612" stop-color="#393939"/><stop offset="1" stop-color="#424242"/></linearGradient><path d="M379.74 804.32c-4.07-.75-7.98 1.94-8.73 6l-6.2 33.57a7.495 7.495 0 006.01 8.73l81.6 15.08 8.93-48.3-81.61-15.08z" fill="url(#SVGID_2_)"/><circle transform="rotate(-83.379 442.324 840.88)" class="st4" cx="442.33" cy="840.86" r="52.23"/><circle transform="rotate(-86.411 442.332 840.888)" cx="442.33" cy="840.86" fill="#bdbdbd" r="43.09"/><path d="M484.71 848.69c3.41-18.43-5.47-36.29-20.83-45.16l-14.77 79.88c17.52-2.78 32.19-16.28 35.6-34.72z" fill="#fff"/><circle transform="rotate(-76.643 459.995 826.862)" class="st4" cx="459.98" cy="826.82" r="10.49"/><path fill="#4285f4" d="M534.5 963.3l-188.6-40.39L205 1445l252-3z"/><path fill="#2a56c6" d="M333.21 942.04l205.13 37.95 5.46-53.7-193.68-35.23z"/><g><path d="M911.1 698.36c5.83 62.4 43.88 304.26 43.88 304.26l-200.12 40.68c-3.56-105.83 3.42-322.8-24.31-435.8-27.73-113-31.01-124.94-30.7-219.9s9.69-109.17 21.8-107.88c12.11 1.29 15.43 8.8 15.2 32.58-.22 23.1 4.24 76.76 5.52 83.83s10.68 11.3 9.69-2.84-4.55-104.96-1.4-126.05 10.12-29.83 22.48-28.33c12.36 1.5 18.33 12.58 19.02 36.8.69 24.22 2.9 105.54 4.1 115.13s8.67 10.76 9.62 1.3c.95-9.47.25-111.84 2.25-129.32 2-17.48 8.8-29.51 21.19-28.26s21.31 12.91 22.02 38.46c.72 25.54-1.75 117.35-.24 123.62 1.51 6.27 8.24 6.04 8.83-1.12.59-7.16 11.81-90.33 13.12-107.94s8.94-31.09 21.5-28.86 19.25 13.84 18.98 33.52c-.28 19.68-10.92 131.06-7.89 149.86 4.03 24.99 10.9 35.14 43.15 3.93 23.97-23.2 52.58-40.28 64.38-25.76s-28.13 60.63-41.42 81.56-70.64 89.63-60.65 196.53z" fill="#5d4037"/><linearGradient id="SVGID_3_" gradientUnits="userSpaceOnUse" x1="458.622" y1="930.72" x2="748.77" y2="930.72" gradientTransform="rotate(94.876 926.889 878.51)"><stop offset="0" stop-color="#42210b" stop-opacity=".4"/><stop offset=".165" stop-color="#4d2e1e" stop-opacity=".499"/><stop offset=".365" stop-color="#56382c" stop-opacity=".619"/><stop offset=".607" stop-color="#5b3e34" stop-opacity=".764"/><stop offset="1" stop-color="#5d4037"/></linearGradient><path d="M911.1 698.36c-9.98-106.89 47.36-175.59 60.65-196.52s53.22-67.04 41.42-81.56-40.41 2.56-64.38 25.76c-8.27 8.01-16.62 14.23-24.19 18.24-22.27 11.8-78.23-28.89-114.47 37.95-44.87 82.74 100.97 196.13 100.97 196.13z" fill="url(#SVGID_3_)"/><path class="st11" d="M742.93 745.56s-35.28-56.11-25.57-83.05c9.7-26.95 35.22 8.56 51.71 5.47 40.34-7.56 30.2 32.37 30.46 37.32.06 1.23.22 2.54 1.01 3.49.87 1.06 2.3 1.44 3.64 1.71 5.5 1.14 11.15 1.56 16.59 2.98 12.8 3.35 23.97 12.48 29.8 24.35 2.75 5.59 6.27 16.09 2 20.63"/><path class="st11" d="M852.55 758.46c3.57-13.25 16.7-28.02 29-34.09 4.14-2.04 8.75-3.63 11.68-7.2 1.94-2.37 2.9-5.36 4.05-8.19a59.235 59.235 0 0118.27-24.23c4.89-3.83 11.28-6.98 17.13-4.92 6.16 2.16 9.19 9.43 8.92 15.95-.22 5.13-1.98 10.14-1.77 15.26.21 5.12 2.38 10.01 2.53 15.13.39 14.01-14.53 39.13-14.53 39.13"/><path fill="#db4536" d="M742.93 745.56l184.89 19.74L1014 1445l-298 9z"/><path fill="none" stroke="#eda29b" stroke-width="5.047" stroke-linecap="round" stroke-miterlimit="10" d="M783.32 769.34l-1.27 224.8"/><circle class="st14" cx="782.24" cy="795.73" r="11.78"/><circle class="st14" cx="782.88" cy="848.19" r="11.78"/><circle class="st14" cx="781.82" cy="900.73" r="11.78"/><circle class="st14" cx="782.53" cy="953.19" r="11.78"/></g></svg>